<?xml version="1.0" standalone="no"?>
<!DOCTYPE svg PUBLIC "-//W3C//DTD SVG 1.1//EN" "http://www.w3.org/Graphics/SVG/1.1/DTD/svg11.dtd" >
<svg xmlns="http://www.w3.org/2000/svg">
<metadata>
This is a custom SVG webfont generated by Font Squirrel.
Copyright   : WhoAmI Design July98  httpwwwbtinternetcomwhoami
</metadata>
<defs>
<font id="ZX81Regular" horiz-adv-x="2023" >
<font-face units-per-em="2048" ascent="2048" descent="0" />
<missing-glyph horiz-adv-x="500" />
<glyph unicode=" " />
<glyph unicode="!" d="M504 256h260v258h-260v-258zM504 766h260v1026h-260v-1026z" />
<glyph unicode="&#x22;" d="M252 1278h260v514h-260v-514zM1008 1278h260v514h-260v-514z" />
<glyph unicode="#" d="M0 512h252v-256h260v256h496v-256h260v256h252v258h-252v508h252v258h-252v256h-260v-256h-496v256h-260v-256h-252v-258h252v-508h-252v-258zM512 770v508h496v-508h-496z" />
<glyph unicode="$" d="M252 256h504v-256h260v256h504v770h-504v252h504v258h-504v256h-260v-256h-504v-770h504v-252h-504v-258zM512 1026v252h244v-252h-244zM1016 514v252h244v-252h-244z" />
<glyph unicode="%" d="M0 256h260v256h252v254h252v256h252v256h252v256h252v258h-260v-256h-252v-254h-252v-256h-252v-256h-252v-256h-252v-258zM0 1278h512v514h-512v-514zM1008 256h512v514h-512v-514z" />
<glyph unicode="&#x26;" d="M0 512h252v-256h764v256h244v-256h260v258h-252v252h252v260h-260v-256h-244v256h-252v252h252v258h-252v256h-260v-256h-252v-258h252v-252h-252v-256h-252v-258zM260 514v252h252v256h244v-256h252v-252h-748zM512 1282v252h244v-252h-244z" />
<glyph unicode="'" d="M504 1278h260v256h252v258h-260v-256h-252v-258z" />
<glyph unicode="(" d="M997 512h252v-256h260v258h-252v1020h252v258h-260v-256h-252v-1024z" />
<glyph unicode=")" d="M238 256h260v256h252v1024h-252v256h-260v-258h251v-1020h-251v-258z" />
<glyph unicode="*" d="M252 766h504v-252h-252v-258h260v256h244v-256h260v258h-252v252h504v260h-504v252h252v258h-260v-254h-244v254h-260v-258h252v-252h-504v-260z" />
<glyph unicode="+" d="M252 766h504v-510h260v510h504v260h-504v510h-260v-510h-504v-260z" />
<glyph unicode="," d="M504 0h260v256h252v514h-260v-510h-252v-260z" />
<glyph unicode="-" d="M252 766h1268v260h-1268v-260z" />
<glyph unicode="." d="M504 256h512v514h-512v-514z" />
<glyph unicode="/" d="M252 250h260v256h252v256h252v254h252v256h252v260h-260v-256h-252v-256h-252v-254h-252v-256h-252v-260z" />
<glyph unicode="0" d="M0 512h252v-256h1016v256h252v1024h-252v256h-1016v-256h-252v-1024zM260 770v764h748v-252h-252v-256h-252v-256h-244zM512 514v252h252v256h252v256h244v-764h-748z" />
<glyph unicode="1" d="M252 256h1268v258h-504v1278h-512v-256h-252v-258h260v256h244v-1020h-504v-258z" />
<glyph unicode="2" d="M0 256h1520v258h-1260v252h1008v256h252v514h-252v256h-1016v-256h-252v-258h260v256h1000v-508h-1008v-256h-252v-514z" />
<glyph unicode="3" d="M0 512h252v-256h1016v256h252v514h-252v252h252v258h-252v256h-1016v-256h-252v-258h260v256h1000v-252h-504v-260h504v-508h-1000v256h-260v-258z" />
<glyph unicode="4" d="M0 512h756v-256h260v256h504v258h-504v1022h-260v-256h-252v-254h-252v-256h-252v-514zM260 770v252h252v256h244v-508h-496z" />
<glyph unicode="5" d="M0 512h252v-256h1016v256h252v514h-252v256h-1008v252h1260v258h-1520v-770h1260v-508h-1000v256h-260v-258z" />
<glyph unicode="6" d="M0 512h252v-256h1016v256h252v514h-252v256h-1008v252h1008v258h-1016v-256h-252v-1024zM260 514v508h1000v-508h-1000z" />
<glyph unicode="7" d="M0 1534h1260v-252h-252v-256h-252v-256h-252v-514h260v510h252v256h252v256h252v514h-1520v-258z" />
<glyph unicode="8" d="M0 512h252v-256h1016v256h252v514h-252v252h252v258h-252v256h-1016v-256h-252v-258h252v-252h-252v-514zM260 514v508h1000v-508h-1000zM260 1282v252h1000v-252h-1000z" />
<glyph unicode="9" d="M0 1022h252v-256h1008v-252h-1008v-258h1016v256h252v1024h-252v256h-1016v-256h-252v-514zM260 1026v508h1000v-508h-1000z" />
<glyph unicode=":" d="M504 256h260v258h-260v-258zM504 1022h260v260h-260v-260z" />
<glyph unicode=";" d="M252 0h260v256h252v514h-260v-510h-252v-260zM504 1278h260v258h-260v-258z" />
<glyph unicode="&#x3c;" d="M504 766h252v-254h252v-256h260v258h-252v256h-252v252h252v256h252v258h-260v-254h-252v-256h-252v-260z" />
<glyph unicode="=" d="M252 504h1268v260h-1268v-260zM252 1032h1268v258h-1268v-258z" />
<glyph unicode="&#x3e;" d="M252 256h260v256h252v254h252v260h-252v256h-252v254h-260v-258h252v-256h252v-252h-252v-256h-252v-258z" />
<glyph unicode="?" d="M0 1278h260v256h1000v-252h-252v-256h-252v-260h260v256h252v256h252v258h-252v256h-1016v-256h-252v-258zM756 256h260v258h-260v-258z" />
<glyph unicode="@" d="M0 512h252v-256h1016v258h-1008v1020h496v-252h-252v-516h1016v770h-252v256h-1016v-256h-252v-1024zM764 1026v252h244v-252h-244zM1016 1282v252h244v-252h-244z" />
<glyph unicode="A" d="M0 256h260v510h1000v-510h260v1280h-252v256h-1016v-256h-252v-1280zM260 1026v508h1000v-508h-1000z" />
<glyph unicode="B" d="M0 256h1268v256h252v514h-252v252h252v258h-252v256h-1268v-1536zM260 514v508h1000v-508h-1000zM260 1282v252h1000v-252h-1000z" />
<glyph unicode="C" d="M0 512h252v-256h1016v256h252v258h-260v-256h-1000v1020h1000v-256h260v258h-252v256h-1016v-256h-252v-1024z" />
<glyph unicode="D" d="M0 256h1016v256h252v254h252v516h-252v254h-252v256h-1016v-1536zM260 514v1020h748v-256h252v-508h-252v-256h-748z" />
<glyph unicode="E" d="M0 256h1520v258h-1260v508h1008v260h-1008v252h1260v258h-1520v-1536z" />
<glyph unicode="F" d="M0 256h260v766h1008v260h-1008v252h1260v258h-1520v-1536z" />
<glyph unicode="G" d="M0 512h252v-256h1016v256h252v514h-764v-260h504v-252h-1000v1020h1000v-256h260v258h-252v256h-1016v-256h-252v-1024z" />
<glyph unicode="H" d="M0 256h260v766h1000v-766h260v1536h-260v-510h-1000v510h-260v-1536z" />
<glyph unicode="I" d="M252 256h1268v258h-504v1020h504v258h-1268v-258h504v-1020h-504v-258z" />
<glyph unicode="J" d="M0 512h252v-256h1016v256h252v1280h-260v-1278h-1000v512h-260v-514z" />
<glyph unicode="K" d="M0 256h260v766h496v-256h252v-254h252v-256h260v258h-252v256h-252v256h-252v252h252v256h252v258h-260v-256h-252v-254h-496v510h-260v-1536z" />
<glyph unicode="L" d="M0 256h1520v258h-1260v1278h-260v-1536z" />
<glyph unicode="M" d="M0 256h260v1022h244v-256h512v256h244v-1022h260v1536h-260v-256h-252v-254h-496v254h-252v256h-260v-1536z" />
<glyph unicode="N" d="M0 256h260v1022h244v-256h252v-256h252v-254h252v-256h260v1536h-260v-1022h-244v256h-252v256h-252v254h-252v256h-260v-1536z" />
<glyph unicode="O" d="M0 512h252v-256h1016v256h252v1024h-252v256h-1016v-256h-252v-1024zM260 514v1020h1000v-1020h-1000z" />
<glyph unicode="P" d="M0 256h260v510h1008v256h252v514h-252v256h-1268v-1536zM260 1026v508h1000v-508h-1000z" />
<glyph unicode="Q" d="M0 512h252v-256h1016v256h252v1024h-252v256h-1016v-256h-252v-1024zM260 514v1020h1000v-1020h-244v256h-252v256h-260v-260h252v-252h-496z" />
<glyph unicode="R" d="M0 256h260v510h748v-254h252v-256h260v258h-252v508h252v514h-252v256h-1268v-1536zM260 1026v508h1000v-508h-1000z" />
<glyph unicode="S" d="M0 512h252v-256h1016v256h252v514h-252v256h-1008v252h1008v258h-1016v-256h-252v-258h252v-256h1008v-508h-1000v256h-260v-258z" />
<glyph unicode="T" d="M0 1534h756v-1278h260v1278h756v258h-1772v-258z" />
<glyph unicode="U" d="M0 512h252v-256h1016v256h252v1280h-260v-1278h-1000v1278h-260v-1280z" />
<glyph unicode="V" d="M0 766h252v-254h252v-256h512v256h252v254h252v1026h-260v-1022h-252v-256h-496v256h-252v1022h-260v-1026z" />
<glyph unicode="W" d="M0 512h252v-256h260v256h496v-256h260v256h252v1280h-260v-1278h-244v256h-512v-256h-244v1278h-260v-1280z" />
<glyph unicode="X" d="M0 256h260v256h252v254h496v-254h252v-256h260v258h-252v256h-252v508h252v256h252v258h-260v-256h-252v-254h-496v254h-252v256h-260v-258h252v-256h252v-508h-252v-256h-252v-258z" />
<glyph unicode="Y" d="M0 1534h252v-256h252v-256h252v-766h260v766h252v256h252v256h252v258h-261v-256h-251v-254h-252v-256h-244v256h-252v254h-252v256h-260v-258z" />
<glyph unicode="Z" d="M0 256h1520v258h-1008v252h252v256h252v256h252v256h252v258h-1520v-258h1008v-252h-252v-256h-252v-256h-252v-256h-252v-258z" />
<glyph unicode="[" d="M772 256h764v258h-504v1020h504v258h-764v-1536z" />
<glyph unicode="\" d="M264 1278h252v-256h252v-256h252v-254h252v-256h258v258h-252v256h-252v256h-252v256h-252v254h-258v-258z" />
<glyph unicode="]" d="M252 256h764v1536h-764v-258h504v-1020h-504v-258z" />
<glyph unicode="^" d="M252 1022h260v256h244v-1022h260v1022h244v-256h260v260h-252v254h-252v256h-260v-256h-252v-254h-252v-260z" />
<glyph unicode="_" d="M0 0h2023v260h-2023v-260z" />
<glyph unicode="a" d="M0 0v2048h2023v-2048h-2023zM0 256h260v510h1000v-510h260v1280h-252v256h-1016v-256h-252v-1280zM260 1026v508h1000v-508h-1000z" />
<glyph unicode="b" d="M0 0v2048h2023v-2048h-2023zM0 256h1268v256h252v514h-252v252h252v258h-252v256h-1268v-1536zM260 514v508h1000v-508h-1000zM260 1282v252h1000v-252h-1000z" />
<glyph unicode="c" d="M0 0v2048h2023v-2048h-2023zM0 512h252v-256h1016v256h252v258h-260v-256h-1000v1020h1000v-256h260v258h-252v256h-1016v-256h-252v-1024z" />
<glyph unicode="d" d="M0 0v2048h2023v-2048h-2023zM0 256h1016v256h252v254h252v516h-252v254h-252v256h-1016v-1536zM260 514v1020h748v-256h252v-508h-252v-256h-748z" />
<glyph unicode="e" d="M0 0v2048h2023v-2048h-2023zM0 256h1520v258h-1260v508h1008v260h-1008v252h1260v258h-1520v-1536z" />
<glyph unicode="f" d="M0 0v2048h2023v-2048h-2023zM0 256h260v766h1008v260h-1008v252h1260v258h-1520v-1536z" />
<glyph unicode="g" d="M0 0v2048h2023v-2048h-2023zM0 512h252v-256h1016v256h252v514h-764v-260h504v-252h-1000v1020h1000v-256h260v258h-252v256h-1016v-256h-252v-1024z" />
<glyph unicode="h" d="M0 0v2048h2023v-2048h-2023zM0 256h260v766h1000v-766h260v1536h-260v-510h-1000v510h-260v-1536z" />
<glyph unicode="i" d="M0 0v2048h2023v-2048h-2023zM252 256h1268v258h-504v1020h504v258h-1268v-258h504v-1020h-504v-258z" />
<glyph unicode="j" d="M0 0v2048h2023v-2048h-2023zM0 512h252v-256h1016v256h252v1280h-260v-1278h-1000v512h-260v-514z" />
<glyph unicode="k" d="M0 0v2048h2023v-2048h-2023zM0 256h260v766h496v-256h252v-254h252v-256h260v258h-252v256h-252v256h-252v252h252v256h252v258h-260v-256h-252v-254h-496v510h-260v-1536z" />
<glyph unicode="l" d="M0 0v2048h2023v-2048h-2023zM0 256h1520v258h-1260v1278h-260v-1536z" />
<glyph unicode="m" d="M0 0v2048h2023v-2048h-2023zM0 256h260v1022h244v-256h512v256h244v-1022h260v1536h-260v-256h-252v-254h-496v254h-252v256h-260v-1536z" />
<glyph unicode="n" d="M0 0v2048h2023v-2048h-2023zM0 256h260v1022h244v-256h252v-256h252v-254h252v-256h260v1536h-260v-1022h-244v256h-252v256h-252v254h-252v256h-260v-1536z" />
<glyph unicode="o" d="M0 0v2048h2023v-2048h-2023zM0 512h252v-256h1016v256h252v1024h-252v256h-1016v-256h-252v-1024zM260 514v1020h1000v-1020h-1000z" />
<glyph unicode="p" d="M0 0v2048h2023v-2048h-2023zM0 256h260v510h1008v256h252v514h-252v256h-1268v-1536zM260 1026v508h1000v-508h-1000z" />
<glyph unicode="q" d="M0 0v2048h2023v-2048h-2023zM0 512h252v-256h1016v256h252v1024h-252v256h-1016v-256h-252v-1024zM260 514v1020h1000v-1020h-244v256h-252v256h-260v-260h252v-252h-496z" />
<glyph unicode="r" d="M0 0v2048h2023v-2048h-2023zM0 256h260v510h748v-254h252v-256h260v258h-252v508h252v514h-252v256h-1268v-1536zM260 1026v508h1000v-508h-1000z" />
<glyph unicode="s" d="M0 0v2048h2023v-2048h-2023zM0 512h252v-256h1016v256h252v514h-252v256h-1008v252h1008v258h-1016v-256h-252v-258h252v-256h1008v-508h-1000v256h-260v-258z" />
<glyph unicode="t" d="M0 0v2048h2023v-2048h-2023zM0 1534h756v-1278h260v1278h756v258h-1772v-258z" />
<glyph unicode="u" d="M0 0v2048h2023v-2048h-2023zM0 512h252v-256h1016v256h252v1280h-260v-1278h-1000v1278h-260v-1280z" />
<glyph unicode="v" d="M0 0v2048h2023v-2048h-2023zM0 766h252v-254h252v-256h512v256h252v254h252v1026h-260v-1022h-252v-256h-496v256h-252v1022h-260v-1026z" />
<glyph unicode="w" d="M0 0v2048h2023v-2048h-2023zM0 512h252v-256h260v256h496v-256h260v256h252v1280h-260v-1278h-244v256h-512v-256h-244v1278h-260v-1280z" />
<glyph unicode="x" d="M0 0v2048h2023v-2048h-2023zM0 256h260v256h252v254h496v-254h252v-256h260v258h-252v256h-252v508h252v256h252v258h-260v-256h-252v-254h-496v254h-252v256h-260v-258h252v-256h252v-508h-252v-256h-252v-258z" />
<glyph unicode="y" d="M0 0v2048h2023v-2048h-2023zM0 1534h252v-256h252v-256h252v-766h260v766h252v256h252v256h252v258h-261v-256h-251v-254h-252v-256h-244v256h-252v254h-252v256h-260v-258z" />
<glyph unicode="z" d="M0 0v2048h2023v-2048h-2023zM0 256h1520v258h-1008v252h252v256h252v256h252v256h252v258h-1520v-258h1008v-252h-252v-256h-252v-256h-252v-256h-252v-258z" />
<glyph unicode="{" d="M252 1022h504v-766h764v258h-504v512h-252v252h252v256h504v258h-764v-510h-504v-260z" />
<glyph unicode="|" d="M756 256h260v1536h-260v-1536z" />
<glyph unicode="}" d="M264 256h764v766h504v260h-504v510h-764v-258h504v-256h252v-252h-252v-512h-504v-258z" />
<glyph unicode="~" d="M252 1278h260v256h244v-256h260v256h252v258h-260v-256h-244v256h-260v-256h-252v-258z" />
<glyph unicode="&#xa0;" />
<glyph unicode="&#xa3;" d="M0 256h1520v258h-1008v508h504v260h-504v252h748v-256h260v258h-252v256h-764v-256h-252v-254h-252v-260h252v-508h-252v-258z" />
<glyph unicode="&#xa4;" d="M0 0v2048h2023v-2048h-2023zM0 256h1520v258h-1260v252h1008v256h252v514h-252v256h-1016v-256h-252v-258h260v256h1000v-508h-1008v-256h-252v-514z" />
<glyph unicode="&#xa9;" d="M0 512h252v-256h252v-256h1016v256h252v256h251v1024h-251v256h-252v256h-1016v-256h-252v-256h-252v-1024zM260 514v1020h252v254h999v-254h252v-1020h-252v-254h-999v254h-252zM504 766h252v-254h512v258h-504v508h504v258h-512v-254h-252v-516z" />
<glyph unicode="&#xaa;" d="M0 0v2048h2023v-2048h-2023zM0 256h260v510h1000v-510h260v1280h-252v256h-1016v-256h-252v-1280zM260 1026v508h1000v-508h-1000z" />
<glyph unicode="&#xad;" d="M252 766h1268v260h-1268v-260z" />
<glyph unicode="&#xb0;" d="M0 0v2048h2023v-2048h-2023zM0 512h252v-256h1016v256h252v514h-252v252h252v258h-252v256h-1016v-256h-252v-258h252v-252h-252v-514zM260 514v508h1000v-508h-1000zM260 1282v252h1000v-252h-1000z" />
<glyph unicode="&#xb2;" d="M0 256h1520v258h-1260v252h1008v256h252v514h-252v256h-1016v-256h-252v-258h260v256h1000v-508h-1008v-256h-252v-514z" />
<glyph unicode="&#xb3;" d="M0 512h252v-256h1016v256h252v514h-252v252h252v258h-252v256h-1016v-256h-252v-258h260v256h1000v-252h-504v-260h504v-508h-1000v256h-260v-258z" />
<glyph unicode="&#xb9;" d="M252 256h1268v258h-504v1278h-512v-256h-252v-258h260v256h244v-1020h-504v-258z" />
<glyph unicode="&#xba;" d="M0 0v2048h2023v-2048h-2023zM0 512h252v-256h1016v256h252v1024h-252v256h-1016v-256h-252v-1024zM260 514v1020h1000v-1020h-1000z" />
<glyph unicode="&#xbc;" horiz-adv-x="6069" d="M4046 512h756v-256h260v256h504v258h-504v1022h-260v-256h-252v-254h-252v-256h-252v-514zM4306 770v252h252v256h244v-508h-496zM2023 0v2048h2023v-2048h-2023zM2275 256h1268v258h-504v1278h-512v-256h-252v-258h260v256h244v-1020h-504v-258zM252 256h1268v258h-504 v1278h-512v-256h-252v-258h260v256h244v-1020h-504v-258z" />
<glyph unicode="&#xbd;" horiz-adv-x="6069" d="M4046 256h1520v258h-1260v252h1008v256h252v514h-252v256h-1016v-256h-252v-258h260v256h1000v-508h-1008v-256h-252v-514zM2023 0v2048h2023v-2048h-2023zM2275 256h1268v258h-504v1278h-512v-256h-252v-258h260v256h244v-1020h-504v-258zM252 256h1268v258h-504v1278 h-512v-256h-252v-258h260v256h244v-1020h-504v-258z" />
<glyph unicode="&#xbe;" horiz-adv-x="6069" d="M4046 512h756v-256h260v256h504v258h-504v1022h-260v-256h-252v-254h-252v-256h-252v-514zM4306 770v252h252v256h244v-508h-496zM2023 0v2048h2023v-2048h-2023zM2275 256h1268v258h-504v1278h-512v-256h-252v-258h260v256h244v-1020h-504v-258zM0 512h252v-256h1016 v256h252v514h-252v252h252v258h-252v256h-1016v-256h-252v-258h260v256h1000v-252h-504v-260h504v-508h-1000v256h-260v-258z" />
<glyph unicode="&#xc2;" d="M-252 1914h2023v1026h-1007v1022h-1016v-2048zM0 256h260v510h1000v-510h260v1280h-252v256h-1016v-256h-252v-1280zM260 1026v508h1000v-508h-1000z" />
<glyph unicode="&#xc3;" d="M-252 1914h2023v2048h-1015v-1022h-1008v-1026zM0 256h260v510h1000v-510h260v1280h-252v256h-1016v-256h-252v-1280zM260 1026v508h1000v-508h-1000z" />
<glyph unicode="&#xc5;" d="M1008 1022h1015v1026h-1015v-1026z" />
<glyph unicode="&#xc7;" d="M0 1022h2023v1026h-2023v-1026z" />
<glyph unicode="&#xc8;" d="M0 0h1016v1022h1007v1026h-1015v-1022h-1008v-1026z" />
<glyph unicode="&#xca;" d="M-252 1914h2023v1026h-1007v1022h-1016v-2048zM0 256h1520v258h-1260v508h1008v260h-1008v252h1260v258h-1520v-1536z" />
<glyph unicode="&#xcc;" d="M0 1022h1008v-1022h1015v2048h-2023v-1026z" />
<glyph unicode="&#xce;" d="M1008 0h1015v1026h-1015v-1026z" />
<glyph unicode="&#xcf;" d="M0 1022h1008v-1022h1015v1026h-1007v1022h-1016v-1026z" />
<glyph unicode="&#xd1;" d="M-252 1914h2023v2048h-1015v-1022h-1008v-1026zM0 256h260v1022h244v-256h252v-256h252v-254h252v-256h260v1536h-260v-1022h-244v256h-252v256h-252v254h-252v256h-260v-1536z" />
<glyph unicode="&#xd2;" d="M0 0h2023v1026h-2023v-1026z" />
<glyph unicode="&#xd3;" d="M0 0h1016v1026h-1016v-1026z" />
<glyph unicode="&#xd4;" d="M0 0h1016v2048h-1016v-2048z" />
<glyph unicode="&#xd5;" d="M-252 1914h2023v2048h-1015v-1022h-1008v-1026zM0 512h252v-256h1016v256h252v1024h-252v256h-1016v-256h-252v-1024zM260 514v1020h1000v-1020h-1000z" />
<glyph unicode="&#xd8;" d="M0 0h2023v2048h-2023v-2048z" />
<glyph unicode="&#xdb;" d="M-252 1914h2023v1026h-1007v1022h-1016v-2048zM0 512h252v-256h1016v256h252v1280h-260v-1278h-1000v1278h-260v-1280z" />
<glyph unicode="&#xe2;" d="M0 2170h2023v1026h-1007v1022h-1016v-2048zM0 0v2048h2023v-2048h-2023zM0 256h260v510h1000v-510h260v1280h-252v256h-1016v-256h-252v-1280zM260 1026v508h1000v-508h-1000z" />
<glyph unicode="&#xe3;" d="M0 2170h2023v2048h-1015v-1022h-1008v-1026zM0 0v2048h2023v-2048h-2023zM0 256h260v510h1000v-510h260v1280h-252v256h-1016v-256h-252v-1280zM260 1026v508h1000v-508h-1000z" />
<glyph unicode="&#xe5;" d="M0 2170v2048h2023v-2048h-2023zM0 2682h252v-256h1016v256h252v514h-252v252h252v258h-252v256h-1016v-256h-252v-258h252v-252h-252v-514zM260 2684v508h1000v-508h-1000zM260 3452v252h1000v-252h-1000zM0 0v2048h2023v-2048h-2023zM0 256h260v510h1000v-510h260v1280 h-252v256h-1016v-256h-252v-1280zM260 1026v508h1000v-508h-1000z" />
<glyph unicode="&#xea;" d="M0 2170h2023v1026h-1007v1022h-1016v-2048zM0 0v2048h2023v-2048h-2023zM0 256h1520v258h-1260v508h1008v260h-1008v252h1260v258h-1520v-1536z" />
<glyph unicode="&#xee;" d="M-504 2170h2023v1026h-1007v1022h-1016v-2048zM0 1022h1016v1026h-1016v-1026z" />
<glyph unicode="&#xf1;" d="M0 2170h2023v2048h-1015v-1022h-1008v-1026zM0 0v2048h2023v-2048h-2023zM0 256h260v1022h244v-256h252v-256h252v-254h252v-256h260v1536h-260v-1022h-244v256h-252v256h-252v254h-252v256h-260v-1536z" />
<glyph unicode="&#xf4;" d="M0 2170h2023v1026h-1007v1022h-1016v-2048zM0 0v2048h2023v-2048h-2023zM0 512h252v-256h1016v256h252v1024h-252v256h-1016v-256h-252v-1024zM260 514v1020h1000v-1020h-1000z" />
<glyph unicode="&#xf5;" d="M0 2170h2023v2048h-1015v-1022h-1008v-1026zM0 0v2048h2023v-2048h-2023zM0 512h252v-256h1016v256h252v1024h-252v256h-1016v-256h-252v-1024zM260 514v1020h1000v-1020h-1000z" />
<glyph unicode="&#xfb;" d="M0 2170h2023v1026h-1007v1022h-1016v-2048zM0 0v2048h2023v-2048h-2023zM0 512h252v-256h1016v256h252v1280h-260v-1278h-1000v1278h-260v-1280z" />
<glyph unicode="&#x131;" d="M0 1022h1016v1026h-1016v-1026z" />
<glyph unicode="&#x152;" horiz-adv-x="4046" d="M2023 256h1520v258h-1260v508h1008v260h-1008v252h1260v258h-1520v-1536zM0 512h252v-256h1016v256h252v1024h-252v256h-1016v-256h-252v-1024zM260 514v1020h1000v-1020h-1000z" />
<glyph unicode="&#x153;" horiz-adv-x="4046" d="M2023 0v2048h2023v-2048h-2023zM2023 256h1520v258h-1260v508h1008v260h-1008v252h1260v258h-1520v-1536zM0 0v2048h2023v-2048h-2023zM0 512h252v-256h1016v256h252v1024h-252v256h-1016v-256h-252v-1024zM260 514v1020h1000v-1020h-1000z" />
<glyph unicode="&#x2c6;" d="M0 0h2023v1026h-1007v1022h-1016v-2048z" />
<glyph unicode="&#x2dc;" d="M0 0h2023v2048h-1015v-1022h-1008v-1026z" />
<glyph unicode="&#x2000;" horiz-adv-x="2109" />
<glyph unicode="&#x2001;" horiz-adv-x="4218" />
<glyph unicode="&#x2002;" horiz-adv-x="2109" />
<glyph unicode="&#x2003;" horiz-adv-x="4218" />
<glyph unicode="&#x2004;" horiz-adv-x="1406" />
<glyph unicode="&#x2005;" horiz-adv-x="1054" />
<glyph unicode="&#x2006;" horiz-adv-x="703" />
<glyph unicode="&#x2007;" horiz-adv-x="703" />
<glyph unicode="&#x2008;" horiz-adv-x="527" />
<glyph unicode="&#x2009;" horiz-adv-x="843" />
<glyph unicode="&#x200a;" horiz-adv-x="234" />
<glyph unicode="&#x2010;" d="M252 766h1268v260h-1268v-260z" />
<glyph unicode="&#x2011;" d="M252 766h1268v260h-1268v-260z" />
<glyph unicode="&#x2012;" d="M252 766h1268v260h-1268v-260z" />
<glyph unicode="&#x2013;" horiz-adv-x="1024" d="M252 766v260h269v-260h-269z" />
<glyph unicode="&#x2014;" horiz-adv-x="2048" d="M252 766v260h1293v-260h-1293z" />
<glyph unicode="&#x2019;" d="M504 1278h260v256h252v258h-260v-256h-252v-258z" />
<glyph unicode="&#x201a;" d="M0 0v2048h2023v-2048h-2023zM0 512h252v-256h1016v256h252v1024h-252v256h-1016v-256h-252v-1024zM260 770v764h748v-252h-252v-256h-252v-256h-244zM512 514v252h252v256h252v256h244v-764h-748z" />
<glyph unicode="&#x201c;" d="M252 1278h260v514h-260v-514zM1008 1278h260v514h-260v-514z" />
<glyph unicode="&#x201d;" d="M252 1278h260v514h-260v-514zM1008 1278h260v514h-260v-514z" />
<glyph unicode="&#x2026;" horiz-adv-x="6069" d="M4550 256h512v514h-512v-514zM2527 256h512v514h-512v-514zM504 256h512v514h-512v-514z" />
<glyph unicode="&#x202f;" horiz-adv-x="843" />
<glyph unicode="&#x2039;" d="M0 0v2048h2023v-2048h-2023zM0 512h252v-256h1016v256h252v514h-252v252h252v258h-252v256h-1016v-256h-252v-258h260v256h1000v-252h-504v-260h504v-508h-1000v256h-260v-258z" />
<glyph unicode="&#x203a;" d="M0 0v2048h2023v-2048h-2023zM0 512h756v-256h260v256h504v258h-504v1022h-260v-256h-252v-254h-252v-256h-252v-514zM260 770v252h252v256h244v-508h-496z" />
<glyph unicode="&#x2044;" d="M0 0v2048h2023v-2048h-2023zM252 256h1268v258h-504v1278h-512v-256h-252v-258h260v256h244v-1020h-504v-258z" />
<glyph unicode="&#x205f;" horiz-adv-x="1054" />
<glyph unicode="&#x2122;" horiz-adv-x="4046" d="M2023 256h260v1022h244v-256h512v256h244v-1022h260v1536h-260v-256h-252v-254h-496v254h-252v256h-260v-1536zM0 1534h756v-1278h260v1278h756v258h-1772v-258z" />
<glyph unicode="&#xe000;" horiz-adv-x="2050" d="M0 2050h2050v-2050h-2050v2050z" />
<glyph unicode="&#xfb01;" horiz-adv-x="4046" d="M2023 0v2048h2023v-2048h-2023zM2275 256h1268v258h-504v1020h504v258h-1268v-258h504v-1020h-504v-258zM0 0v2048h2023v-2048h-2023zM0 256h260v766h1008v260h-1008v252h1260v258h-1520v-1536z" />
<glyph unicode="&#xfb02;" horiz-adv-x="4046" d="M2023 0v2048h2023v-2048h-2023zM2023 256h1520v258h-1260v1278h-260v-1536zM0 0v2048h2023v-2048h-2023zM0 256h260v766h1008v260h-1008v252h1260v258h-1520v-1536z" />
<glyph unicode="&#xfb03;" horiz-adv-x="6069" d="M4046 0v2048h2023v-2048h-2023zM4298 256h1268v258h-504v1020h504v258h-1268v-258h504v-1020h-504v-258zM2023 0v2048h2023v-2048h-2023zM2023 256h260v766h1008v260h-1008v252h1260v258h-1520v-1536zM0 0v2048h2023v-2048h-2023zM0 256h260v766h1008v260h-1008v252h1260 v258h-1520v-1536z" />
<glyph unicode="&#xfb04;" horiz-adv-x="6069" d="M4046 0v2048h2023v-2048h-2023zM4046 256h1520v258h-1260v1278h-260v-1536zM2023 0v2048h2023v-2048h-2023zM2023 256h260v766h1008v260h-1008v252h1260v258h-1520v-1536zM0 0v2048h2023v-2048h-2023zM0 256h260v766h1008v260h-1008v252h1260v258h-1520v-1536z" />
</font>
</defs>
</svg>
